<?xml version="1.0" encoding="UTF-8"?>
<svg id="Layer_1" data-name="Layer 1" xmlns="http://www.w3.org/2000/svg" xmlns:xlink="http://www.w3.org/1999/xlink" viewBox="0 0 280.1589 62.4297">
  <g id="type">
    <path id="type_CompoundPathItem_" data-name="type &amp;lt;CompoundPathItem&amp;gt;" d="M72.2223,11.2334h8.3525l13.105,17.7852,13.1055-17.7852h8.2808V51.8447h-10.0093V28.2266c-.0718,.0723-2.3042,3.7441-3.6719,5.5439l-7.7051,10.2256-7.7764-10.2969c-1.3682-1.7285-3.6006-5.2568-3.6724-5.4004v23.5459h-10.0088V11.2334Z" style="fill: #fff;"/>
    <path id="type_CompoundPathItem_-2" data-name="type &amp;lt;CompoundPathItem&amp;gt;" d="M119.238,33.8428c0-10.3691,6.3364-18.7217,16.2734-18.7217,4.1763,0,8.6406,1.6562,11.2329,5.1123v-4.3916h9.4326V51.8447h-9.4326v-4.3203c-2.52,3.4561-7.0566,5.04-11.2329,5.04-9.937,0-16.2734-8.3525-16.2734-18.7217Zm27.2905,0c0-5.6162-3.6006-9.793-8.5688-9.793-5.1846,0-8.9287,4.1768-8.9287,9.793,0,5.6885,3.7441,9.793,8.9287,9.793,4.9683,0,8.5688-4.0322,8.5688-9.793Z" style="fill: #fff;"/>
    <path id="type_CompoundPathItem_-3" data-name="type &amp;lt;CompoundPathItem&amp;gt;" d="M162.797,15.8418h9.5049v6.9121c1.0078-2.9521,4.6802-7.6328,12.6011-7.6328v10.5127c-8.353,0-12.457,3.8164-12.457,12.3857v13.8252h-9.6489V15.8418Z" style="fill: #fff;"/>
    <path id="type_CompoundPathItem_-4" data-name="type &amp;lt;CompoundPathItem&amp;gt;" d="M189.5807,57.9648l3.6001-6.0488c2.8804,2.2324,7.0566,3.2412,10.4409,3.2412,6.6968,0,10.0811-4.0332,10.3691-9.793,.0718-.2168,.0718-.5039,.0718-.792-1.584,2.8076-5.4722,5.3281-10.8008,5.3281-10.0088,0-16.2734-7.7764-16.2734-17.3535,0-9.6484,6.2646-17.4258,16.2734-17.4258,4.6084,0,9.3608,2.0166,11.3047,5.6172v-4.8965h9.145v27.29c0,11.8086-7.1284,19.2979-19.0815,19.2979-6.4805,0-11.7373-1.7285-15.0493-4.4648Zm24.5542-25.6338c0-5.041-3.7446-8.8574-8.7129-8.8574-4.8965,0-8.6406,3.8164-8.6406,9.0732,0,5.1846,3.7441,8.9287,8.6406,8.9287,5.0405,0,8.7129-3.7441,8.7129-9.1445Z" style="fill: #fff;"/>
    <path id="type_CompoundPathItem_-5" data-name="type &amp;lt;CompoundPathItem&amp;gt;" d="M229.3249,5.7607c0-3.1689,2.5923-5.7607,5.6885-5.7607,3.168,0,5.7607,2.5918,5.7607,5.7607,0,3.0957-2.5928,5.6885-5.7607,5.6885-3.0962,0-5.6885-2.5928-5.6885-5.6885Zm.936,10.0811h9.6489V51.8447h-9.6489V15.8418Z" style="fill: #fff;"/>
    <path id="type_CompoundPathItem_-6" data-name="type &amp;lt;CompoundPathItem&amp;gt;" d="M246.5319,15.8418h9.4326v4.8242c2.8809-3.9609,6.9854-5.5449,11.377-5.5449,9.5049,0,12.8174,6.1211,12.8174,15.9854v20.7383h-9.6484v-19.5137c0-5.2568-1.3682-8.0654-6.2646-8.0654-4.8242,0-8.0645,3.8887-8.0645,9.3613v18.2178h-9.6494V15.8418Z" style="fill: #fff;"/>
  </g>
  <g id="logoMark">
    <a xlink:href="65.583137254902">
      <path id="logoMark_PathItem_" data-name="logoMark &amp;lt;PathItem&amp;gt;" d="M56.2503,29.4017h-10.879c0-8.4671-6.8985-15.3655-15.3655-15.3655V3.1403c7.0165,0,13.6114,2.7324,18.5702,7.6912,4.9419,4.9588,7.6743,11.5537,7.6743,18.5702Z" style="fill: #fff;"/>
    </a>
    <a xlink:href="65.583137254902">
      <path id="logoMark_PathItem_-2" data-name="logoMark &amp;lt;PathItem&amp;gt;" d="M41.6101,29.4017h-4.8407c0-3.795-3.036-6.8985-6.7804-6.8985v-4.8407c6.4093,0,11.6211,5.2624,11.6211,11.7392Z" style="fill: #fff;"/>
    </a>
    <a xlink:href="45.7254901960784">
      <path id="logoMark_PathItem_-3" data-name="logoMark &amp;lt;PathItem&amp;gt;" d="M41.7281,33.028c0,8.4671-6.8985,15.3655-15.3655,15.3655s-15.3655-6.8985-15.3655-15.3655,6.8985-15.3655,15.3655-15.3655V6.7835c-7.0165,0-13.6114,2.7324-18.5702,7.6912C2.8336,19.4335,.1012,26.0283,.1012,33.0449c0,6.6961,2.4794,12.9873,7.0165,17.8618L0,59.2894H26.3457c7.0165,0,13.6114-2.7324,18.5702-7.6912,4.9588-4.9588,7.6912-11.5537,7.6912-18.5702h-10.879Z" style="fill: #fff;"/>
    </a>
  </g>
</svg>